<svg width="48" height="48" viewBox="0 0 1024 1024" xmlns="http://www.w3.org/2000/svg" role="img" aria-label="Paseo logo">
  <rect x="8" y="8" width="1008" height="1008" rx="196" fill="#050505"/>
  <path d="M199.0 656.0 L201.0 665.0 L208.0 671.0 L215.0 671.0 L225.0 661.0 L285.0 414.0 L313.0 339.0 L326.0 317.0 L353.0 285.0 L378.0 266.0 L403.0 254.0 L438.0 244.0 L463.0 241.0 L512.0 244.0 L545.0 254.0 L569.0 269.0 L588.0 292.0 L595.0 310.0 L595.0 338.0 L582.0 372.0 L563.0 396.0 L541.0 415.0 L482.0 447.0 L429.0 466.0 L393.0 475.0 L388.0 479.0 L387.0 492.0 L395.0 499.0 L456.0 505.0 L508.0 524.0 L538.0 547.0 L551.0 568.0 L374.0 648.0 L318.0 683.0 L300.0 701.0 L284.0 732.0 L284.0 761.0 L290.0 774.0 L303.0 788.0 L327.0 800.0 L350.0 804.0 L384.0 804.0 L411.0 800.0 L466.0 781.0 L508.0 756.0 L546.0 721.0 L571.0 684.0 L587.0 635.0 L588.0 599.0 L585.0 581.0 L670.0 541.0 L674.0 546.0 L654.0 625.0 L648.0 674.0 L651.0 714.0 L657.0 733.0 L667.0 748.0 L683.0 762.0 L696.0 768.0 L711.0 772.0 L734.0 772.0 L778.0 759.0 L819.0 734.0 L828.0 724.0 L828.0 717.0 L823.0 710.0 L813.0 708.0 L783.0 729.0 L747.0 745.0 L716.0 748.0 L704.0 745.0 L690.0 736.0 L678.0 718.0 L674.0 702.0 L675.0 653.0 L681.0 618.0 L700.0 540.0 L707.0 525.0 L792.0 486.0 L852.0 454.0 L878.0 438.0 L882.0 432.0 L882.0 423.0 L875.0 416.0 L866.0 416.0 L819.0 444.0 L758.0 475.0 L576.0 557.0 L555.0 528.0 L533.0 510.0 L502.0 494.0 L467.0 485.0 L464.0 479.0 L497.0 467.0 L537.0 447.0 L568.0 426.0 L595.0 398.0 L612.0 369.0 L621.0 335.0 L618.0 298.0 L611.0 281.0 L599.0 263.0 L576.0 243.0 L544.0 227.0 L522.0 221.0 L483.0 217.0 L448.0 218.0 L394.0 231.0 L359.0 249.0 L331.0 271.0 L309.0 297.0 L287.0 334.0 L265.0 392.0 Z M307.0 740.0 L316.0 721.0 L330.0 706.0 L370.0 678.0 L553.0 593.0 L558.0 592.0 L562.0 595.0 L563.0 629.0 L557.0 652.0 L544.0 681.0 L509.0 723.0 L470.0 751.0 L437.0 767.0 L404.0 777.0 L350.0 780.0 L333.0 776.0 L317.0 767.0 L308.0 754.0 Z" fill="#fff" fill-rule="evenodd"/>
  <circle cx="808" cy="808" r="150" fill="#22c55e"/>
</svg>
